<?xml version="1.0" encoding="UTF-8"?>
<svg xmlns="http://www.w3.org/2000/svg" xmlns:xlink="http://www.w3.org/1999/xlink" viewBox="0 0 240 240" width="240px" height="240px">
<g id="surface31873131">
<path style=" stroke:none;fill-rule:nonzero;fill:rgb(40.000001%,6.27451%,94.901961%);fill-opacity:1;" d="M 114.515625 16.429688 C 117.910156 14.523438 122.089844 14.523438 125.480469 16.429688 C 142.253906 25.84375 192.734375 54.183594 209.515625 63.601562 C 212.910156 65.5 215 69.019531 215 72.828125 C 215 91.660156 215 148.335938 215 167.164062 C 215 170.976562 212.910156 174.496094 209.515625 176.398438 C 192.738281 185.816406 142.261719 214.15625 125.480469 223.570312 C 122.085938 225.476562 117.90625 225.476562 114.515625 223.570312 C 97.738281 214.15625 47.261719 185.816406 30.480469 176.398438 C 27.089844 174.496094 25 170.980469 25 167.171875 C 25 148.339844 25 91.664062 25 72.835938 C 25 69.023438 27.089844 65.503906 30.484375 63.601562 C 47.253906 54.183594 97.746094 25.84375 114.515625 16.429688 Z M 114.515625 16.429688 "/>
<path style=" stroke:none;fill-rule:nonzero;fill:rgb(40.000001%,6.27451%,94.901961%);fill-opacity:1;" d="M 26.519531 172.019531 C 25.191406 170.238281 25 168.550781 25 166.273438 C 25 147.554688 25 91.203125 25 72.480469 C 25 68.691406 27.085938 65.191406 30.46875 63.300781 C 47.183594 53.941406 97.496094 25.765625 114.210938 16.398438 C 117.59375 14.503906 122.179688 14.546875 125.566406 16.441406 C 142.28125 25.800781 192.421875 53.734375 209.136719 63.09375 C 210.484375 63.855469 211.515625 64.769531 212.433594 65.976562 Z M 26.519531 172.019531 "/>
<path style=" stroke:none;fill-rule:nonzero;fill:rgb(100%,100%,100%);fill-opacity:1;" d="M 120 50 C 81.351562 50 50 81.351562 50 120 C 50 158.648438 81.351562 190 120 190 C 158.648438 190 190 158.648438 190 120 C 190 81.351562 158.648438 50 120 50 Z M 120 155 C 100.699219 155 85 139.300781 85 120 C 85 100.699219 100.699219 85 120 85 C 139.300781 85 155 100.699219 155 120 C 155 139.300781 139.300781 155 120 155 Z M 120 155 "/>
<path style=" stroke:none;fill-rule:nonzero;fill:rgb(40.000001%,6.27451%,94.901961%);fill-opacity:1;" d="M 212.425781 66.023438 C 215.003906 68.441406 214.953125 72.078125 214.953125 74.945312 C 214.953125 93.921875 214.796875 147.890625 215 166.863281 C 215.019531 168.84375 214.363281 170.929688 213.386719 172.5 L 117.964844 120 Z M 212.425781 66.023438 "/>
<path style=" stroke:none;fill-rule:nonzero;fill:rgb(100%,100%,100%);fill-opacity:1;" d="M 170 100 L 175 100 L 175 140 L 170 140 Z M 185 100 L 190 100 L 190 140 L 185 140 Z M 185 100 "/>
<path style=" stroke:none;fill-rule:nonzero;fill:rgb(100%,100%,100%);fill-opacity:1;" d="M 160 125 L 200 125 L 200 130 L 160 130 Z M 160 110 L 200 110 L 200 115 L 160 115 Z M 160 110 "/>
</g>
</svg>
